<svg width="91.269" height="93" xmlns="http://www.w3.org/2000/svg">
 <defs>
  <style>.cls-1 {
        fill: none;
        stroke: #655b52;
        stroke-width: 3px;
      }</style>
 </defs>
 <g>
  <title>background</title>
  <rect fill="none" id="canvas_background" height="402" width="582" y="-1" x="-1"/>
 </g>
 <g>
  <title>Layer 1</title>
  <g id="shop">
   <g stroke="null" id="Group_80">
    <g stroke="null" id="Group_79">
     <path stroke="null" d="m89.153681,30.191874l-8.54494,-25.52717a2.665974,2.009779 0 0 0 -2.453683,-1.648019l-64.940159,0a2.665974,2.009779 0 0 0 -2.452696,1.648019l-8.54494,25.52717a3.653371,2.754142 0 0 0 -0.110589,0.669926c0,4.66492 3.060933,8.692666 7.452878,10.534219l0.160946,0.066248q0.222164,0.090068 0.448279,0.171948c0.069118,0.025308 0.138236,0.050617 0.208341,0.074436q0.133299,0.04615 0.268572,0.089324q0.171807,0.055083 0.346577,0.106444q0.139223,0.04094 0.280421,0.078158t0.308068,0.079647c0.06813,0.016376 0.135273,0.034241 0.204391,0.049872c0.155021,0.035729 0.312018,0.067737 0.469014,0.098256l0.186618,0.034241c0.167858,0.029775 0.336703,0.05806 0.506535,0.08188l0.106639,0.013399c0.158971,0.020842 0.318929,0.039451 0.479875,0.055827l0.127374,0.012654q0.274497,0.024564 0.55393,0.037962l0.122437,0.005211c0.19748,0.008188 0.394959,0.013399 0.592439,0.013399a10.848539,8.178312 0 0 0 4.117448,-0.614099a11.710537,8.82814 0 0 0 1.698324,-0.64834q0.163908,-0.074436 0.324854,-0.155572a12.751254,9.612698 0 0 0 1.242146,-0.703423q0.149097,-0.096023 0.296219,-0.195023a14.514746,10.94213 0 0 0 2.567234,-2.328366a14.52462,10.949574 0 0 0 2.567234,2.328366q0.146135,0.099 0.296219,0.195023a12.771002,9.627586 0 0 0 1.242146,0.703423q0.160946,0.080391 0.324854,0.155572a11.698688,8.819208 0 0 0 1.702274,0.652062a10.81398,8.152259 0 0 0 8.234897,0a11.709549,8.827396 0 0 0 1.702274,-0.652062q0.163908,-0.074436 0.324854,-0.155572a12.750266,9.611954 0 0 0 1.242146,-0.703423q0.149097,-0.096023 0.296219,-0.195023a14.514746,10.94213 0 0 0 2.567234,-2.328366a14.529557,10.953295 0 0 0 2.567234,2.328366q0.146135,0.099 0.296219,0.195023a12.771989,9.62833 0 0 0 1.242146,0.703423q0.160946,0.080391 0.324854,0.155572a11.698688,8.819208 0 0 0 1.702274,0.652062a10.81398,8.152259 0 0 0 8.234897,0a11.711524,8.828885 0 0 0 1.702274,-0.652062q0.163908,-0.074436 0.324854,-0.155572a12.750266,9.611954 0 0 0 1.242146,-0.703423q0.149097,-0.096023 0.296219,-0.195023a14.514746,10.94213 0 0 0 2.567234,-2.328366a14.525608,10.950318 0 0 0 2.567234,2.328366q0.146135,0.099 0.296219,0.195023a12.771989,9.62833 0 0 0 1.242146,0.703423q0.160946,0.080391 0.324854,0.155572a11.699675,8.819952 0 0 0 1.702274,0.652062a10.851501,8.180545 0 0 0 4.117448,0.614099c0.19748,0 0.394959,-0.005211 0.592439,-0.013399l0.122437,-0.005211q0.278446,-0.014143 0.55393,-0.037962l0.127374,-0.012654q0.240925,-0.02382 0.479875,-0.055083l0.106639,-0.013399c0.169832,-0.02382 0.338677,-0.052105 0.506535,-0.08188l0.186618,-0.034241c0.156996,-0.030519 0.313992,-0.062526 0.469014,-0.098256c0.06813,-0.015632 0.136261,-0.033496 0.204391,-0.049872q0.155021,-0.037962 0.308068,-0.079647t0.280421,-0.078158q0.174769,-0.051361 0.346577,-0.106444q0.135273,-0.043173 0.268572,-0.089324c0.070105,-0.024564 0.139223,-0.049128 0.208341,-0.074436q0.226114,-0.082624 0.448279,-0.171948l0.160946,-0.066248c4.394907,-1.841553 7.452878,-5.870043 7.452878,-10.534219a3.618813,2.728089 0 0 0 -0.096765,-0.674392z" class="cls-1" id="Path_29"/>
    </g>
   </g>
   <g id="Group_82">
    <g id="Group_81">
     <rect x="23.031" y="61.362999" height="30.137" width="18.706" class="cls-1" id="Rectangle_70"/>
    </g>
   </g>
   <g id="Group_84">
    <g id="Group_83">
     <rect x="53.438999" y="54.854" height="10.392" width="14.549" class="cls-1" id="Rectangle_71"/>
    </g>
   </g>
   <g id="Group_86">
    <g id="Group_85">
     <path d="m75.625001,42.657012a14.792,14.792 0 0 1 -7.951,-2.386a17.175,17.175 0 0 1 -2.046,-1.536a17.176,17.176 0 0 1 -2.046,1.536a14.792,14.792 0 0 1 -7.951,2.386l13.329,0c1.38,0 2.5,1.4 2.5,3.118l0,16.626c0,1.722 -1.119,3.118 -2.5,3.118l-16.661,0c-1.38,0 -2.5,-1.4 -2.5,-3.118l0,-16.627c0,-1.722 1.119,-3.118 2.5,-3.118l3.332,0a14.792,14.792 0 0 1 -7.951,-2.386a17.174,17.174 0 0 1 -2.046,-1.536a17.164,17.164 0 0 1 -2.046,1.536a14.44,14.44 0 0 1 -15.9,0a17.174,17.174 0 0 1 -2.046,-1.536a17.162,17.162 0 0 1 -2.046,1.536a14.792,14.792 0 0 1 -7.951,2.386a14.347,14.347 0 0 1 -5.831,-1.248l0,46.974c0,1.722 1.119,3.118 2.5,3.118l7.5,0l0,-33.255c0,-1.722 1.119,-3.118 2.5,-3.118l19.993,0c1.38,0 2.5,1.4 2.5,3.118l0,33.256l34.15,0c1.38,0 2.5,-1.4 2.5,-3.118l0,-46.975a14.348,14.348 0 0 1 -5.832,1.249z" class="cls-1" id="Path_30"/>
    </g>
   </g>
  </g>
 </g>
</svg>